<?xml version="1.0" encoding="UTF-8"?>
<svg xmlns="http://www.w3.org/2000/svg" xmlns:xlink="http://www.w3.org/1999/xlink" width="2000" height="2000" viewBox="0 0 2000 2000">
<defs>
<clipPath id="clip-0">
<path clip-rule="nonzero" d="M 700 266 L 1300 266 L 1300 1734 L 700 1734 Z M 700 266 "/>
</clipPath>
<clipPath id="clip-1">
<path clip-rule="nonzero" d="M 1266.570312 413.570312 C 1266.710938 416.519531 1267.289062 425.769531 1267.289062 435.808594 C 1267.289062 445.851562 1265.140625 457.328125 1277.328125 456.609375 C 1289.53125 455.890625 1301.011719 455.890625 1298.851562 443.699219 C 1296.699219 431.5 1288.089844 434.371094 1286.660156 418.589844 C 1285.21875 402.808594 1282.351562 410.699219 1284.511719 392.050781 C 1286.660156 373.398438 1287.378906 375.550781 1285.941406 355.460938 C 1284.511719 335.378906 1290.25 331.070312 1272.308594 318.160156 C 1254.378906 305.25 1260.121094 313.140625 1242.898438 302.378906 C 1225.679688 291.621094 1222.101562 298.078125 1218.511719 285.160156 C 1214.921875 272.25 1236.441406 258.621094 1202.730469 271.53125 C 1169.011719 284.449219 1163.988281 283.730469 1157.53125 290.179688 C 1151.078125 296.640625 1147.488281 298.078125 1143.191406 306.679688 C 1138.878906 315.289062 1132.429688 306.679688 1130.988281 323.898438 C 1129.558594 341.121094 1120.949219 338.960938 1132.429688 353.308594 C 1143.898438 367.660156 1156.101562 364.070312 1148.929688 376.980469 C 1141.75 389.898438 1139.601562 392.050781 1139.601562 392.050781 C 1139.601562 392.050781 1144.339844 394.199219 1126.550781 397.789062 C 1108.75 401.371094 1063.558594 415.71875 1054.949219 422.898438 C 1046.339844 430.070312 1057.101562 431.5 1035.578125 434.371094 C 1014.058594 437.238281 1016.929688 444.421875 996.84375 430.789062 C 976.757812 417.160156 976.042969 418.589844 969.585938 412.851562 C 963.128906 407.109375 975.324219 393.480469 948.78125 401.371094 C 922.238281 409.269531 917.9375 409.980469 912.195312 420.03125 C 906.457031 430.070312 920.804688 432.941406 897.851562 434.371094 C 874.894531 435.808594 875.609375 432.941406 852.65625 435.808594 C 829.699219 438.679688 834.003906 435.808594 812.484375 441.550781 C 790.964844 447.289062 775.179688 450.160156 759.398438 462.351562 C 743.617188 474.550781 740.03125 481.71875 728.554688 486.738281 C 717.074219 491.761719 708.46875 491.039062 704.878906 498.21875 C 701.292969 505.390625 699.140625 516.871094 702.726562 523.328125 C 706.3125 529.78125 715.640625 534.089844 724.25 541.980469 C 732.855469 549.871094 737.160156 541.980469 732.855469 560.628906 C 728.554688 579.28125 729.269531 577.128906 728.554688 587.171875 C 727.835938 597.210938 730.703125 602.949219 723.53125 609.410156 C 716.355469 615.871094 709.183594 620.171875 708.46875 626.628906 C 707.75 633.078125 724.964844 722.75 727.117188 732.800781 C 729.269531 742.839844 735.007812 753.601562 746.488281 761.488281 C 757.964844 769.378906 773.027344 781.578125 780.921875 793.050781 C 788.8125 804.53125 793.832031 833.941406 793.832031 842.550781 C 793.832031 851.160156 803.875 870.53125 804.59375 875.550781 C 805.308594 880.570312 818.941406 951.589844 817.503906 964.5 C 816.070312 977.421875 812.484375 991.039062 813.917969 1007.539062 C 815.351562 1024.039062 822.527344 1031.929688 811.050781 1045.558594 C 799.570312 1059.191406 788.09375 1057.039062 785.222656 1075.691406 C 782.355469 1094.351562 770.878906 1143.839844 768.726562 1158.910156 C 766.574219 1173.96875 759.398438 1177.558594 750.789062 1184.019531 C 742.183594 1190.46875 732.855469 1207.691406 732.855469 1207.691406 C 732.855469 1207.691406 732.140625 1225.621094 735.007812 1243.558594 C 737.878906 1261.488281 735.726562 1265.078125 736.445312 1279.421875 C 737.160156 1293.769531 733.574219 1293.050781 749.355469 1310.269531 C 765.136719 1327.488281 785.941406 1349.730469 795.265625 1357.621094 C 804.59375 1365.511719 803.15625 1357.621094 813.199219 1366.21875 C 823.242188 1374.828125 834.003906 1382.011719 834.003906 1382.011719 C 834.003906 1382.011719 881.351562 1422.179688 898.566406 1438.679688 C 915.785156 1455.179688 931.566406 1463.789062 942.324219 1481.71875 C 953.085938 1499.648438 955.957031 1514 971.019531 1531.941406 C 986.085938 1549.871094 1000.289062 1552.019531 1000 1569.960938 C 999.714844 1587.890625 1009.039062 1622.320312 1009.761719 1635.949219 C 1010.480469 1649.578125 1005.449219 1675.410156 1014.058594 1696.210938 C 1022.671875 1717.011719 1029.128906 1722.75 1036.300781 1729.210938 C 1043.46875 1735.671875 1051.371094 1736.378906 1066.429688 1722.75 C 1081.488281 1709.121094 1085.800781 1708.410156 1100.148438 1686.878906 C 1114.488281 1665.359375 1116.640625 1660.339844 1131.710938 1647.429688 C 1146.769531 1634.519531 1165.421875 1633.078125 1164.710938 1612.28125 C 1163.988281 1591.480469 1193.398438 1202.308594 1191.25 1193.699219 C 1189.101562 1185.089844 1184.789062 1179.710938 1190.171875 1159.269531 C 1195.550781 1138.820312 1208.46875 1106.539062 1208.46875 1106.539062 C 1208.46875 1106.539062 1212.769531 1091.480469 1216 1067.800781 C 1219.230469 1044.128906 1226.761719 1031.21875 1216 1018.308594 C 1205.238281 1005.390625 1200.929688 1014 1192.328125 992.480469 C 1183.71875 970.960938 1178.339844 977.421875 1180.488281 954.820312 C 1182.640625 932.21875 1205.238281 927.921875 1205.238281 907.46875 C 1205.238281 887.03125 1200.929688 885.949219 1198.78125 861.199219 C 1196.628906 836.460938 1183.71875 825.691406 1200.929688 813.859375 C 1218.148438 802.019531 1232.140625 809.550781 1233.21875 786.960938 C 1234.289062 764.359375 1231.058594 754.671875 1226.761719 736.378906 C 1222.460938 718.089844 1209.539062 706.25 1224.609375 704.101562 C 1239.671875 701.949219 1254.738281 701.949219 1259.039062 693.339844 C 1263.339844 684.730469 1268.71875 673.96875 1255.808594 672.898438 C 1242.898438 671.820312 1222.460938 677.199219 1211.691406 670.738281 C 1200.929688 664.289062 1196.628906 662.140625 1200.929688 641.691406 C 1205.238281 621.25 1209.539062 604.03125 1205.238281 597.570312 C 1200.929688 591.121094 1192.328125 570.671875 1166.5 578.210938 C 1140.679688 585.738281 1127.761719 571.75 1125.609375 599.730469 C 1123.460938 627.699219 1126.691406 636.308594 1123.460938 639.539062 C 1120.230469 642.769531 1114.851562 654.601562 1099.789062 642.769531 C 1084.71875 630.929688 1072.890625 622.320312 1071.808594 619.089844 C 1070.730469 615.871094 1029.839844 569.601562 1029.839844 566.371094 C 1029.839844 563.140625 1014.78125 558.839844 1033.070312 545.921875 C 1051.371094 533.011719 1044.910156 528.710938 1061.050781 530.859375 C 1077.191406 533.011719 1083.648438 536.238281 1099.789062 535.160156 C 1115.929688 534.089844 1110.550781 536.238281 1132.070312 530.859375 C 1153.589844 525.480469 1158.96875 525.480469 1163.269531 516.871094 C 1167.578125 508.261719 1180.488281 508.261719 1168.648438 493.199219 C 1156.820312 478.128906 1146.058594 471.679688 1138.519531 464.140625 C 1130.988281 456.609375 1123.460938 444.78125 1129.921875 435.089844 C 1136.371094 425.410156 1134.21875 425.410156 1142.828125 417.871094 C 1151.441406 410.339844 1143.898438 408.191406 1156.820312 407.109375 C 1169.730469 406.039062 1160.039062 412.488281 1180.488281 402.808594 C 1200.929688 393.128906 1206.308594 382.359375 1206.308594 382.359375 C 1206.308594 382.359375 1208.46875 370.53125 1214.921875 386.671875 C 1221.378906 402.808594 1217.078125 409.269531 1227.828125 408.191406 C 1238.601562 407.109375 1245.050781 384.519531 1250.429688 381.289062 C 1255.808594 378.058594 1265.871094 398.5 1266.570312 413.570312 Z M 1266.570312 413.570312 "/>
</clipPath>
<clipPath id="clip-2">
<path clip-rule="nonzero" d="M 1266.570312 413.570312 C 1266.710938 416.519531 1267.289062 425.769531 1267.289062 435.808594 C 1267.289062 445.851562 1265.140625 457.328125 1277.328125 456.609375 C 1289.53125 455.890625 1301.011719 455.890625 1298.851562 443.699219 C 1296.699219 431.5 1288.089844 434.371094 1286.660156 418.589844 C 1285.21875 402.808594 1282.351562 410.699219 1284.511719 392.050781 C 1286.660156 373.398438 1287.378906 375.550781 1285.941406 355.460938 C 1284.511719 335.378906 1290.25 331.070312 1272.308594 318.160156 C 1254.378906 305.25 1260.121094 313.140625 1242.898438 302.378906 C 1225.679688 291.621094 1222.101562 298.078125 1218.511719 285.160156 C 1214.921875 272.25 1236.441406 258.621094 1202.730469 271.53125 C 1169.011719 284.449219 1163.988281 283.730469 1157.53125 290.179688 C 1151.078125 296.640625 1147.488281 298.078125 1143.191406 306.679688 C 1138.878906 315.289062 1132.429688 306.679688 1130.988281 323.898438 C 1129.558594 341.121094 1120.949219 338.960938 1132.429688 353.308594 C 1143.898438 367.660156 1156.101562 364.070312 1148.929688 376.980469 C 1141.75 389.898438 1139.601562 392.050781 1139.601562 392.050781 C 1139.601562 392.050781 1144.339844 394.199219 1126.550781 397.789062 C 1108.75 401.371094 1063.558594 415.71875 1054.949219 422.898438 C 1046.339844 430.070312 1057.101562 431.5 1035.578125 434.371094 C 1014.058594 437.238281 1016.929688 444.421875 996.84375 430.789062 C 976.757812 417.160156 976.042969 418.589844 969.585938 412.851562 C 963.128906 407.109375 975.324219 393.480469 948.78125 401.371094 C 922.238281 409.269531 917.9375 409.980469 912.195312 420.03125 C 906.457031 430.070312 920.804688 432.941406 897.851562 434.371094 C 874.894531 435.808594 875.609375 432.941406 852.65625 435.808594 C 829.699219 438.679688 834.003906 435.808594 812.484375 441.550781 C 790.964844 447.289062 775.179688 450.160156 759.398438 462.351562 C 743.617188 474.550781 740.03125 481.71875 728.554688 486.738281 C 717.074219 491.761719 708.46875 491.039062 704.878906 498.21875 C 701.292969 505.390625 699.140625 516.871094 702.726562 523.328125 C 706.3125 529.78125 715.640625 534.089844 724.25 541.980469 C 732.855469 549.871094 737.160156 541.980469 732.855469 560.628906 C 728.554688 579.28125 729.269531 577.128906 728.554688 587.171875 C 727.835938 597.210938 730.703125 602.949219 723.53125 609.410156 C 716.355469 615.871094 709.183594 620.171875 708.46875 626.628906 C 707.75 633.078125 724.964844 722.75 727.117188 732.800781 C 729.269531 742.839844 735.007812 753.601562 746.488281 761.488281 C 757.964844 769.378906 773.027344 781.578125 780.921875 793.050781 C 788.8125 804.53125 793.832031 833.941406 793.832031 842.550781 C 793.832031 851.160156 803.875 870.53125 804.59375 875.550781 C 805.308594 880.570312 818.941406 951.589844 817.503906 964.5 C 816.070312 977.421875 812.484375 991.039062 813.917969 1007.539062 C 815.351562 1024.039062 822.527344 1031.929688 811.050781 1045.558594 C 799.570312 1059.191406 788.09375 1057.039062 785.222656 1075.691406 C 782.355469 1094.351562 770.878906 1143.839844 768.726562 1158.910156 C 766.574219 1173.96875 759.398438 1177.558594 750.789062 1184.019531 C 742.183594 1190.46875 732.855469 1207.691406 732.855469 1207.691406 C 732.855469 1207.691406 732.140625 1225.621094 735.007812 1243.558594 C 737.878906 1261.488281 735.726562 1265.078125 736.445312 1279.421875 C 737.160156 1293.769531 733.574219 1293.050781 749.355469 1310.269531 C 765.136719 1327.488281 785.941406 1349.730469 795.265625 1357.621094 C 804.59375 1365.511719 803.15625 1357.621094 813.199219 1366.21875 C 823.242188 1374.828125 834.003906 1382.011719 834.003906 1382.011719 C 834.003906 1382.011719 881.351562 1422.179688 898.566406 1438.679688 C 915.785156 1455.179688 931.566406 1463.789062 942.324219 1481.71875 C 953.085938 1499.648438 955.957031 1514 971.019531 1531.941406 C 986.085938 1549.871094 1000.289062 1552.019531 1000 1569.960938 C 999.714844 1587.890625 1009.039062 1622.320312 1009.761719 1635.949219 C 1010.480469 1649.578125 1005.449219 1675.410156 1014.058594 1696.210938 C 1022.671875 1717.011719 1029.128906 1722.75 1036.300781 1729.210938 C 1043.46875 1735.671875 1051.371094 1736.378906 1066.429688 1722.75 C 1081.488281 1709.121094 1085.800781 1708.410156 1100.148438 1686.878906 C 1114.488281 1665.359375 1116.640625 1660.339844 1131.710938 1647.429688 C 1146.769531 1634.519531 1165.421875 1633.078125 1164.710938 1612.28125 C 1163.988281 1591.480469 1193.398438 1202.308594 1191.25 1193.699219 C 1189.101562 1185.089844 1184.789062 1179.710938 1190.171875 1159.269531 C 1195.550781 1138.820312 1208.46875 1106.539062 1208.46875 1106.539062 C 1208.46875 1106.539062 1212.769531 1091.480469 1216 1067.800781 C 1219.230469 1044.128906 1226.761719 1031.21875 1216 1018.308594 C 1205.238281 1005.390625 1200.929688 1014 1192.328125 992.480469 C 1183.71875 970.960938 1178.339844 977.421875 1180.488281 954.820312 C 1182.640625 932.21875 1205.238281 927.921875 1205.238281 907.46875 C 1205.238281 887.03125 1200.929688 885.949219 1198.78125 861.199219 C 1196.628906 836.460938 1183.71875 825.691406 1200.929688 813.859375 C 1218.148438 802.019531 1232.140625 809.550781 1233.21875 786.960938 C 1234.289062 764.359375 1231.058594 754.671875 1226.761719 736.378906 C 1222.460938 718.089844 1209.539062 706.25 1224.609375 704.101562 C 1239.671875 701.949219 1254.738281 701.949219 1259.039062 693.339844 C 1263.339844 684.730469 1268.71875 673.96875 1255.808594 672.898438 C 1242.898438 671.820312 1222.460938 677.199219 1211.691406 670.738281 C 1200.929688 664.289062 1196.628906 662.140625 1200.929688 641.691406 C 1205.238281 621.25 1209.539062 604.03125 1205.238281 597.570312 C 1200.929688 591.121094 1192.328125 570.671875 1166.5 578.210938 C 1140.679688 585.738281 1127.761719 571.75 1125.609375 599.730469 C 1123.460938 627.699219 1126.691406 636.308594 1123.460938 639.539062 C 1120.230469 642.769531 1114.851562 654.601562 1099.789062 642.769531 C 1084.71875 630.929688 1072.890625 622.320312 1071.808594 619.089844 C 1070.730469 615.871094 1029.839844 569.601562 1029.839844 566.371094 C 1029.839844 563.140625 1014.78125 558.839844 1033.070312 545.921875 C 1051.371094 533.011719 1044.910156 528.710938 1061.050781 530.859375 C 1077.191406 533.011719 1083.648438 536.238281 1099.789062 535.160156 C 1115.929688 534.089844 1110.550781 536.238281 1132.070312 530.859375 C 1153.589844 525.480469 1158.96875 525.480469 1163.269531 516.871094 C 1167.578125 508.261719 1180.488281 508.261719 1168.648438 493.199219 C 1156.820312 478.128906 1146.058594 471.679688 1138.519531 464.140625 C 1130.988281 456.609375 1123.460938 444.78125 1129.921875 435.089844 C 1136.371094 425.410156 1134.21875 425.410156 1142.828125 417.871094 C 1151.441406 410.339844 1143.898438 408.191406 1156.820312 407.109375 C 1169.730469 406.039062 1160.039062 412.488281 1180.488281 402.808594 C 1200.929688 393.128906 1206.308594 382.359375 1206.308594 382.359375 C 1206.308594 382.359375 1208.46875 370.53125 1214.921875 386.671875 C 1221.378906 402.808594 1217.078125 409.269531 1227.828125 408.191406 C 1238.601562 407.109375 1245.050781 384.519531 1250.429688 381.289062 C 1255.808594 378.058594 1265.871094 398.5 1266.570312 413.570312 "/>
</clipPath>
<linearGradient id="linear-pattern-0" gradientUnits="userSpaceOnUse" x1="-0.00291359" y1="0" x2="1.003168" y2="0" gradientTransform="matrix(598.231, 0, 0, 598.231, 700.884, 1000)">
<stop offset="0" stop-color="rgb(0%, 49.01886%, 58.03833%)" stop-opacity="1"/>
<stop offset="0.015625" stop-color="rgb(0%, 49.176025%, 58.146667%)" stop-opacity="1"/>
<stop offset="0.03125" stop-color="rgb(0%, 49.528503%, 58.38623%)" stop-opacity="1"/>
<stop offset="0.046875" stop-color="rgb(0%, 49.917603%, 58.651733%)" stop-opacity="1"/>
<stop offset="0.0625" stop-color="rgb(0%, 50.305176%, 58.917236%)" stop-opacity="1"/>
<stop offset="0.078125" stop-color="rgb(0%, 50.694275%, 59.181213%)" stop-opacity="1"/>
<stop offset="0.09375" stop-color="rgb(0%, 51.081848%, 59.446716%)" stop-opacity="1"/>
<stop offset="0.109375" stop-color="rgb(0%, 51.470947%, 59.712219%)" stop-opacity="1"/>
<stop offset="0.125" stop-color="rgb(0%, 51.858521%, 59.977722%)" stop-opacity="1"/>
<stop offset="0.140625" stop-color="rgb(0%, 52.24762%, 60.241699%)" stop-opacity="1"/>
<stop offset="0.15625" stop-color="rgb(0%, 52.636719%, 60.507202%)" stop-opacity="1"/>
<stop offset="0.171875" stop-color="rgb(0%, 53.024292%, 60.772705%)" stop-opacity="1"/>
<stop offset="0.1875" stop-color="rgb(0%, 53.413391%, 61.038208%)" stop-opacity="1"/>
<stop offset="0.203125" stop-color="rgb(0%, 53.800964%, 61.302185%)" stop-opacity="1"/>
<stop offset="0.21875" stop-color="rgb(0%, 54.190063%, 61.567688%)" stop-opacity="1"/>
<stop offset="0.234375" stop-color="rgb(0%, 54.577637%, 61.833191%)" stop-opacity="1"/>
<stop offset="0.25" stop-color="rgb(0%, 54.966736%, 62.097168%)" stop-opacity="1"/>
<stop offset="0.265625" stop-color="rgb(0%, 55.354309%, 62.362671%)" stop-opacity="1"/>
<stop offset="0.28125" stop-color="rgb(0%, 55.743408%, 62.628174%)" stop-opacity="1"/>
<stop offset="0.296875" stop-color="rgb(0%, 56.130981%, 62.893677%)" stop-opacity="1"/>
<stop offset="0.3125" stop-color="rgb(0%, 56.520081%, 63.157654%)" stop-opacity="1"/>
<stop offset="0.328125" stop-color="rgb(0%, 56.907654%, 63.423157%)" stop-opacity="1"/>
<stop offset="0.34375" stop-color="rgb(0%, 57.296753%, 63.68866%)" stop-opacity="1"/>
<stop offset="0.359375" stop-color="rgb(0%, 57.684326%, 63.954163%)" stop-opacity="1"/>
<stop offset="0.375" stop-color="rgb(0%, 58.073425%, 64.21814%)" stop-opacity="1"/>
<stop offset="0.390625" stop-color="rgb(0%, 58.460999%, 64.483643%)" stop-opacity="1"/>
<stop offset="0.40625" stop-color="rgb(0%, 58.850098%, 64.749146%)" stop-opacity="1"/>
<stop offset="0.421875" stop-color="rgb(0%, 59.239197%, 65.013123%)" stop-opacity="1"/>
<stop offset="0.4375" stop-color="rgb(0%, 59.62677%, 65.278625%)" stop-opacity="1"/>
<stop offset="0.453125" stop-color="rgb(0%, 60.015869%, 65.544128%)" stop-opacity="1"/>
<stop offset="0.46875" stop-color="rgb(0%, 60.403442%, 65.809631%)" stop-opacity="1"/>
<stop offset="0.484375" stop-color="rgb(0%, 60.792542%, 66.073608%)" stop-opacity="1"/>
<stop offset="0.5" stop-color="rgb(0%, 61.180115%, 66.339111%)" stop-opacity="1"/>
<stop offset="0.515625" stop-color="rgb(0%, 61.569214%, 66.604614%)" stop-opacity="1"/>
<stop offset="0.53125" stop-color="rgb(0%, 61.956787%, 66.870117%)" stop-opacity="1"/>
<stop offset="0.546875" stop-color="rgb(0%, 62.345886%, 67.134094%)" stop-opacity="1"/>
<stop offset="0.5625" stop-color="rgb(0%, 62.733459%, 67.399597%)" stop-opacity="1"/>
<stop offset="0.578125" stop-color="rgb(0%, 63.122559%, 67.6651%)" stop-opacity="1"/>
<stop offset="0.59375" stop-color="rgb(0%, 63.510132%, 67.929077%)" stop-opacity="1"/>
<stop offset="0.609375" stop-color="rgb(0%, 63.899231%, 68.19458%)" stop-opacity="1"/>
<stop offset="0.625" stop-color="rgb(0%, 64.286804%, 68.460083%)" stop-opacity="1"/>
<stop offset="0.640625" stop-color="rgb(0%, 64.675903%, 68.725586%)" stop-opacity="1"/>
<stop offset="0.65625" stop-color="rgb(0%, 65.063477%, 68.989563%)" stop-opacity="1"/>
<stop offset="0.671875" stop-color="rgb(0%, 65.452576%, 69.255066%)" stop-opacity="1"/>
<stop offset="0.6875" stop-color="rgb(0%, 65.840149%, 69.520569%)" stop-opacity="1"/>
<stop offset="0.703125" stop-color="rgb(0%, 66.229248%, 69.786072%)" stop-opacity="1"/>
<stop offset="0.71875" stop-color="rgb(0%, 66.618347%, 70.050049%)" stop-opacity="1"/>
<stop offset="0.734375" stop-color="rgb(0%, 67.00592%, 70.315552%)" stop-opacity="1"/>
<stop offset="0.75" stop-color="rgb(0%, 67.39502%, 70.581055%)" stop-opacity="1"/>
<stop offset="0.765625" stop-color="rgb(0%, 67.782593%, 70.845032%)" stop-opacity="1"/>
<stop offset="0.78125" stop-color="rgb(0%, 68.171692%, 71.110535%)" stop-opacity="1"/>
<stop offset="0.796875" stop-color="rgb(0%, 68.559265%, 71.376038%)" stop-opacity="1"/>
<stop offset="0.8125" stop-color="rgb(0%, 68.948364%, 71.641541%)" stop-opacity="1"/>
<stop offset="0.828125" stop-color="rgb(0%, 69.335938%, 71.905518%)" stop-opacity="1"/>
<stop offset="0.84375" stop-color="rgb(0%, 69.725037%, 72.171021%)" stop-opacity="1"/>
<stop offset="0.859375" stop-color="rgb(0%, 70.11261%, 72.436523%)" stop-opacity="1"/>
<stop offset="0.875" stop-color="rgb(0%, 70.501709%, 72.7005%)" stop-opacity="1"/>
<stop offset="0.890625" stop-color="rgb(0%, 70.889282%, 72.966003%)" stop-opacity="1"/>
<stop offset="0.90625" stop-color="rgb(0%, 71.278381%, 73.231506%)" stop-opacity="1"/>
<stop offset="0.921875" stop-color="rgb(0%, 71.665955%, 73.497009%)" stop-opacity="1"/>
<stop offset="0.9375" stop-color="rgb(0%, 72.055054%, 73.760986%)" stop-opacity="1"/>
<stop offset="0.953125" stop-color="rgb(0%, 72.442627%, 74.026489%)" stop-opacity="1"/>
<stop offset="0.96875" stop-color="rgb(0%, 72.831726%, 74.291992%)" stop-opacity="1"/>
<stop offset="0.984375" stop-color="rgb(0%, 73.219299%, 74.557495%)" stop-opacity="1"/>
<stop offset="1" stop-color="rgb(0%, 73.568726%, 74.795532%)" stop-opacity="1"/>
</linearGradient>
</defs>

<g clip-path="url(#clip-0)">
<g clip-path="url(#clip-1)">
<g clip-path="url(#clip-2)">
<path fill-rule="nonzero" fill="url(#linear-pattern-0)" d="M 699.140625 258.621094 L 699.140625 1736.378906 L 1301.011719 1736.378906 L 1301.011719 258.621094 Z M 699.140625 258.621094 "/>
</g>
</g>
</g>
</svg>
